<svg width="749" height="412" viewBox="0 0 749 412" fill="none" xmlns="http://www.w3.org/2000/svg">
<path fill-rule="evenodd" clip-rule="evenodd" d="M310.923 81.263C375.174 59.4102 419.425 2.08102 490.176 0.055146C551.309 -1.69532 602.485 38.572 643.774 71.7322C684.271 104.256 714.599 145.099 724.848 188.527C734.706 230.297 697.846 271.044 700.803 313.381C703.625 353.798 770.803 395.579 741.708 429.946C707.529 470.319 611.672 449.074 560.935 478.594C525.32 499.316 525.54 539.26 503.598 568.484C471.546 611.172 464.544 679.192 400.572 692.173C339.807 704.504 287.945 651.427 239.093 622.16C200.33 598.936 191.763 548.487 143.708 538.282C72.0688 523.069 -28.7296 596.847 -76.9284 555.051C-123.319 514.823 10.9723 457.414 -8.14632 406.599C-27.0546 356.343 -157.724 358.501 -170.19 307.172C-180.756 263.667 -84.9564 244.484 -57.0236 205.343C-29.746 167.12 -60.4175 103.222 -9.38188 81.8403C48.3761 57.6421 119.707 103.562 186.2 103.443C229.343 103.365 271.774 94.5784 310.923 81.263Z" fill="#C8FDE8"/>
</svg>
