<svg width="920" height="694" viewBox="0 0 920 694" fill="none" xmlns="http://www.w3.org/2000/svg">
<path fill-rule="evenodd" clip-rule="evenodd" d="M481.923 81.263C546.174 59.4102 590.425 2.08102 661.176 0.055146C722.309 -1.69532 773.485 38.572 814.774 71.7322C855.271 104.256 885.599 145.099 895.848 188.527C905.706 230.297 868.846 271.044 871.803 313.381C874.625 353.798 941.803 395.579 912.708 429.946C878.529 470.319 782.672 449.074 731.935 478.594C696.32 499.316 696.54 539.26 674.598 568.484C642.546 611.172 635.545 679.192 571.572 692.173C510.807 704.504 458.945 651.427 410.093 622.16C371.33 598.936 362.763 548.487 314.708 538.282C243.069 523.069 142.27 596.847 94.0716 555.051C47.6811 514.823 181.972 457.414 162.854 406.599C143.945 356.343 13.2759 358.501 0.809924 307.172C-9.75582 263.667 86.0436 244.484 113.976 205.343C141.254 167.12 110.582 103.222 161.618 81.8403C219.376 57.6421 290.707 103.562 357.2 103.443C400.343 103.365 442.774 94.5784 481.923 81.263Z" fill="#C8FDE8"/>
</svg>
