<svg width="771" height="282" viewBox="0 0 771 282" fill="none" xmlns="http://www.w3.org/2000/svg">
<path fill-rule="evenodd" clip-rule="evenodd" d="M332.923 81.263C397.174 59.4102 441.425 2.08102 512.176 0.055146C573.309 -1.69532 624.485 38.572 665.774 71.7322C706.271 104.256 736.599 145.099 746.848 188.527C756.706 230.297 719.846 271.044 722.803 313.381C725.625 353.798 792.803 395.579 763.708 429.946C729.529 470.319 633.672 449.074 582.935 478.594C547.32 499.316 547.54 539.26 525.598 568.484C493.546 611.172 486.544 679.192 422.572 692.173C361.807 704.504 309.945 651.427 261.093 622.16C222.33 598.936 213.763 548.487 165.708 538.282C94.0688 523.069 -6.7296 596.847 -54.9284 555.051C-101.319 514.823 32.9723 457.414 13.8537 406.599C-5.05464 356.343 -135.724 358.501 -148.19 307.172C-158.756 263.667 -62.9564 244.484 -35.0236 205.343C-7.74596 167.12 -38.4175 103.222 12.6181 81.8403C70.3761 57.6421 141.707 103.562 208.2 103.443C251.343 103.365 293.774 94.5784 332.923 81.263Z" fill="#C8FDE8"/>
</svg>
